<svg height="766" width="720" xmlns="http://www.w3.org/2000/svg">
<rect height="766" fill="#555" width="720"></rect>
<text fill="#7f7" font-family="Courier New" font-size="12" xml:space="preserve">
<tspan x="10" y="26">7 megabytes installed</tspan>
<tspan x="10" y="42"></tspan>
<tspan x="10" y="58">node_modules</tspan>
<tspan x="10" y="74">└─┬ express-handlebars@3.0.0 </tspan>
<tspan x="10" y="90">  ├─┬ glob@6.0.4 </tspan>
<tspan x="10" y="106">  │ ├─┬ inflight@1.0.6 </tspan>
<tspan x="10" y="122">  │ │ └── wrappy@1.0.2 </tspan>
<tspan x="10" y="138">  │ ├── inherits@2.0.3 </tspan>
<tspan x="10" y="154">  │ ├─┬ minimatch@3.0.3 </tspan>
<tspan x="10" y="170">  │ │ └─┬ brace-expansion@1.1.7 </tspan>
<tspan x="10" y="186">  │ │   ├── balanced-match@0.4.2 </tspan>
<tspan x="10" y="202">  │ │   └── concat-map@0.0.1 </tspan>
<tspan x="10" y="218">  │ ├── once@1.4.0 </tspan>
<tspan x="10" y="234">  │ └── path-is-absolute@1.0.1 </tspan>
<tspan x="10" y="250">  ├── graceful-fs@4.1.11 </tspan>
<tspan x="10" y="266">  ├─┬ handlebars@4.0.6 </tspan>
<tspan x="10" y="282">  │ ├── async@1.5.2 </tspan>
<tspan x="10" y="298">  │ ├─┬ optimist@0.6.1 </tspan>
<tspan x="10" y="314">  │ │ ├── minimist@0.0.10 </tspan>
<tspan x="10" y="330">  │ │ └── wordwrap@0.0.3 </tspan>
<tspan x="10" y="346">  │ ├─┬ source-map@0.4.4 </tspan>
<tspan x="10" y="362">  │ │ └── amdefine@1.0.1 </tspan>
<tspan x="10" y="378">  │ └─┬ uglify-js@2.8.22 </tspan>
<tspan x="10" y="394">  │   ├── source-map@0.5.6 </tspan>
<tspan x="10" y="410">  │   ├── uglify-to-browserify@1.0.2 </tspan>
<tspan x="10" y="426">  │   └─┬ yargs@3.10.0 </tspan>
<tspan x="10" y="442">  │     ├── camelcase@1.2.1 </tspan>
<tspan x="10" y="458">  │     ├─┬ cliui@2.1.0 </tspan>
<tspan x="10" y="474">  │     │ ├─┬ center-align@0.1.3 </tspan>
<tspan x="10" y="490">  │     │ │ ├─┬ align-text@0.1.4 </tspan>
<tspan x="10" y="506">  │     │ │ │ ├─┬ kind-of@3.1.0 </tspan>
<tspan x="10" y="522">  │     │ │ │ │ └── is-buffer@1.1.5 </tspan>
<tspan x="10" y="538">  │     │ │ │ ├── longest@1.0.1 </tspan>
<tspan x="10" y="554">  │     │ │ │ └── repeat-string@1.6.1 </tspan>
<tspan x="10" y="570">  │     │ │ └── lazy-cache@1.0.4 </tspan>
<tspan x="10" y="586">  │     │ ├── right-align@0.1.3 </tspan>
<tspan x="10" y="602">  │     │ └── wordwrap@0.0.2 </tspan>
<tspan x="10" y="618">  │     ├── decamelize@1.2.0 </tspan>
<tspan x="10" y="634">  │     └── window-size@0.1.0 </tspan>
<tspan x="10" y="650">  ├─┬ object.assign@4.0.4 </tspan>
<tspan x="10" y="666">  │ ├─┬ define-properties@1.1.2 </tspan>
<tspan x="10" y="682">  │ │ └── foreach@2.0.5 </tspan>
<tspan x="10" y="698">  │ ├── function-bind@1.1.0 </tspan>
<tspan x="10" y="714">  │ └── object-keys@1.0.11 </tspan>
<tspan x="10" y="730">  └─┬ promise@7.1.1 </tspan>
<tspan x="10" y="746">    └── asap@2.0.5</tspan>
</text>
</svg>
